<svg width="220" height="38" fill="none" xmlns="http://www.w3.org/2000/svg"><path d="M35.526 11.867h1.082l3.086-3.085.151-1.31c-5.743-5.07-14.507-4.523-19.576 1.22a13.866 13.866 0 0 0-2.988 5.547 1.67 1.67 0 0 1 1.083-.064l6.17-1.019s.314-.52.478-.488a7.698 7.698 0 0 1 10.535-.8h-.021z" fill="#B6BDD3"/><path d="M44.09 14.239a13.89 13.89 0 0 0-4.19-6.755l-4.33 4.33a7.7 7.7 0 0 1 2.826 6.107v.77a3.855 3.855 0 0 1 0 7.709h-7.71l-.769.78v4.624l.77.769h7.709c5.536.042 10.06-4.411 10.102-9.947a10.03 10.03 0 0 0-4.408-8.387z" fill="#B6BDD3"/><path d="M22.966 32.524h7.71v-6.171h-7.71c-.55 0-1.09-.12-1.591-.348l-1.083.337-3.107 3.086-.27 1.082a9.95 9.95 0 0 0 6.051 2.014z" fill="#B6BDD3"/><path d="M22.966 12.506c-5.538.032-9.998 4.548-9.966 10.086a10.02 10.02 0 0 0 3.915 7.886l4.47-4.47a3.856 3.856 0 1 1 5.1-5.1l4.47-4.47a10.003 10.003 0 0 0-7.989-3.932z" fill="#B6BDD3"/><path fill-rule="evenodd" clip-rule="evenodd" d="M61.878 25.281a9.858 9.858 0 0 0 7.145 2.934 9.222 9.222 0 0 0 6.962-2.823 8.667 8.667 0 0 0 2.371-6.389 8.958 8.958 0 0 0-.109-1.69h-9.192v2.77h6.497a5.753 5.753 0 0 1-1.483 3.368 7.264 7.264 0 0 1-10.135-.12 7.064 7.064 0 0 1-2.09-5.078 7.079 7.079 0 0 1 2.09-5.142 6.868 6.868 0 0 1 5.089-2.164 6.945 6.945 0 0 1 4.927 1.95l1.926-1.961a9.57 9.57 0 0 0-6.853-2.762 9.858 9.858 0 0 0-7.145 2.988 9.539 9.539 0 0 0-2.998 7.06 9.52 9.52 0 0 0 2.998 7.059zm19.346 1.093a6.627 6.627 0 0 0 9.172 0h-.011a6.174 6.174 0 0 0 1.884-4.6 6.179 6.179 0 0 0-1.873-4.601 6.64 6.64 0 0 0-9.172 0 6.179 6.179 0 0 0-1.873 4.6 6.17 6.17 0 0 0 1.873 4.601zm2.025-1.807a3.506 3.506 0 0 0 5.12 0 3.859 3.859 0 0 0 1.082-2.793 3.867 3.867 0 0 0-1.082-2.805 3.564 3.564 0 0 0-5.144 0 3.867 3.867 0 0 0-1.082 2.805 3.857 3.857 0 0 0 1.093 2.793h.013zm12.071 1.807a6.627 6.627 0 0 0 9.171 0 6.16 6.16 0 0 0 1.873-4.6 6.175 6.175 0 0 0-1.873-4.601 6.627 6.627 0 0 0-9.17 0 6.179 6.179 0 0 0-1.874 4.6 6.17 6.17 0 0 0 1.873 4.601zm2.026-1.807a3.506 3.506 0 0 0 4.959.162c.056-.053.111-.107.162-.162a3.86 3.86 0 0 0 1.082-2.793 3.868 3.868 0 0 0-1.082-2.805 3.561 3.561 0 0 0-5.142 0 3.867 3.867 0 0 0-1.082 2.805 3.857 3.857 0 0 0 1.093 2.793h.01zm12.807 8.28a5.68 5.68 0 0 0 3.605 1.15 6.064 6.064 0 0 0 4.407-1.68 6.724 6.724 0 0 0 1.722-5.035v-11.53h-2.685v1.029h-.098a3.996 3.996 0 0 0-1.409-1.03 4.663 4.663 0 0 0-1.992-.442 5.867 5.867 0 0 0-4.33 1.894 6.3 6.3 0 0 0-1.852 4.568 6.238 6.238 0 0 0 1.852 4.537 5.88 5.88 0 0 0 4.33 1.884 4.13 4.13 0 0 0 3.388-1.462h.098v.931a3.957 3.957 0 0 1-.899 2.815 3.253 3.253 0 0 1-2.523.974 3.085 3.085 0 0 1-2.024-.682 4.14 4.14 0 0 1-1.223-1.613l-2.468 1.03a6.647 6.647 0 0 0 2.101 2.663zm3.802-7.165a3.151 3.151 0 0 0 2.446-1.083 3.999 3.999 0 0 0 .984-2.772 4.087 4.087 0 0 0-.984-2.826 3.144 3.144 0 0 0-2.446-1.082A3.35 3.35 0 0 0 111.421 19a3.954 3.954 0 0 0-1.083 2.804 3.88 3.88 0 0 0 1.083 2.773 3.356 3.356 0 0 0 2.534 1.104zm10.707 2.143V8.901h-2.825v18.924h2.825zm7.752.39a6.144 6.144 0 0 1-4.558-1.852 6.269 6.269 0 0 1-1.83-4.59 6.357 6.357 0 0 1 1.764-4.634 5.817 5.817 0 0 1 4.33-1.81 5.468 5.468 0 0 1 2.165.423c.618.249 1.181.618 1.656 1.082.409.394.771.833 1.082 1.31a7.9 7.9 0 0 1 .64 1.266l.292.738-8.66 3.563a3.25 3.25 0 0 0 3.117 1.95 3.695 3.695 0 0 0 3.173-1.786l2.165 1.461a7.106 7.106 0 0 1-2.08 1.972 5.894 5.894 0 0 1-3.256.907zm2.144-9.03l-5.76 2.393a3.429 3.429 0 0 1 1.051-2.728 3.343 3.343 0 0 1 2.327-1.03 2.935 2.935 0 0 1 1.483.38c.405.215.722.563.899.985z" fill="#B6BDD3"/><path d="M152.758 28.215a8.92 8.92 0 0 1-9.071-9.126 8.921 8.921 0 0 1 8.711-9.127c.119-.002.24-.002.36-.002a8.082 8.082 0 0 1 6.42 2.857l-1.56 1.516a5.888 5.888 0 0 0-4.85-2.22 6.621 6.621 0 0 0-4.817 1.926 6.764 6.764 0 0 0-1.961 5.045 6.756 6.756 0 0 0 1.961 5.046 6.613 6.613 0 0 0 4.817 1.927 6.883 6.883 0 0 0 5.413-2.534l1.56 1.56a8.521 8.521 0 0 1-2.998 2.284 9.13 9.13 0 0 1-3.985.848zm11.172-.39h-2.242V10.34h2.242v17.486z" fill="#B6BDD3"/><path fill-rule="evenodd" clip-rule="evenodd" d="M176.425 17.3a6.27 6.27 0 0 0-8.834 0 6.328 6.328 0 0 0-1.733 4.548 6.34 6.34 0 0 0 1.733 4.547 6.27 6.27 0 0 0 8.834 0 6.336 6.336 0 0 0 1.733-4.547 6.336 6.336 0 0 0-1.733-4.547zm-1.826 7.836a3.78 3.78 0 0 1-5.342-.147l.011-.01a4.324 4.324 0 0 1-1.17-3.129 4.338 4.338 0 0 1 1.306-3.286 3.78 3.78 0 0 1 5.342.148 4.313 4.313 0 0 1 1.159 3.138 4.334 4.334 0 0 1-1.159 3.14c-.047.048-.096.1-.147.146z" fill="#B6BDD3"/><path d="M190.575 27.825h-2.165V26.17h-.064a4.184 4.184 0 0 1-1.581 1.493 4.415 4.415 0 0 1-2.221.595 4.214 4.214 0 0 1-3.399-1.364 5.425 5.425 0 0 1-1.159-3.659v-7.362h2.242v6.951c0 2.231.984 3.346 2.955 3.346a2.75 2.75 0 0 0 2.274-1.083c.582-.735.891-1.65.878-2.587v-6.627h2.242v11.952h-.002z" fill="#B6BDD3"/><path fill-rule="evenodd" clip-rule="evenodd" d="M194.18 26.385a5.26 5.26 0 0 0 4.006 1.83 5.076 5.076 0 0 0 2.425-.584 4.13 4.13 0 0 0 1.624-1.461h.098v1.655h2.165V10.34h-2.242v5.532l.098 1.656h-.098a4.13 4.13 0 0 0-1.624-1.462 5.084 5.084 0 0 0-2.446-.584 5.268 5.268 0 0 0-4.006 1.83 6.496 6.496 0 0 0-1.679 4.537 6.496 6.496 0 0 0 1.679 4.537zM201.25 25a3.57 3.57 0 0 1-2.696 1.17 3.565 3.565 0 0 1-2.716-1.196 4.335 4.335 0 0 1-1.083-3.139 4.335 4.335 0 0 1 1.083-3.138 3.657 3.657 0 0 1 5.412 0 4.39 4.39 0 0 1 1.083 3.151A4.386 4.386 0 0 1 201.25 25z" fill="#B6BDD3"/></svg>