<svg width="220" height="38" fill="none" xmlns="http://www.w3.org/2000/svg"><path fill-rule="evenodd" clip-rule="evenodd" d="M63 6c-8.264 0-15 6.718-15 15s6.718 15 15 15 15-6.718 15-15S71.282 6 63 6zm-.773 17.485h-7.472l7.472-14.54v14.54zm1.528-5.006v14.54l7.454-14.54h-7.454z" fill="#B6BDD3"/><path d="M86.724 30.902c-.423-.663-.828-1.325-1.233-1.951 2.116-1.288 2.834-2.32 2.834-4.27V13.436h-2.484v-2.154h5.3V24.11c0 3.277-.957 5.099-4.417 6.792zm22.178-7.675c0 1.086.773 1.196 1.288 1.196s1.252-.165 1.841-.35v2.007c-.81.257-1.638.46-2.779.46-1.381 0-2.982-.515-2.982-2.927v-5.89h-1.454V15.7h1.454v-3h2.632v3h3.313v2.025h-3.313v5.503z" fill="#B6BDD3"/><path fill-rule="evenodd" clip-rule="evenodd" d="M114.405 15.663v16.233h.018v-.019h2.632v-5.613c.681.147 1.344.258 2.172.258 3.405 0 5.466-2.338 5.466-5.89 0-3.589-1.895-5.246-4.27-5.246-1.38 0-2.503.48-3.497 1.252v-.975h-2.521zm2.65 3.073c.92-.81 1.896-1.178 2.669-1.178 1.454 0 2.227 1.013 2.227 3.276 0 2.448-1.068 3.626-2.926 3.626a9.837 9.837 0 0 1-1.97-.202v-5.522zm15.516 7.565h2.539v-6.81c0-3.055-1.656-4.086-4.233-4.086-1.306 0-2.889.276-4.03.68l.22 2.117c1.252-.515 2.798-.717 3.461-.717 1.343 0 1.914.46 1.914 1.895v.313l-2.319.313c-1.638.221-3.957.736-3.957 3.46 0 2.043 1.472 3.037 2.852 3.037 1.583 0 2.632-.718 3.497-1.38h.056V26.3zm-2.338-4.602l2.172-.35v2.172c-.718.516-1.546.976-2.319.976-.718 0-1.196-.479-1.196-1.344 0-.975.681-1.362 1.343-1.454z" fill="#B6BDD3"/><path d="M145.896 25.951c-1.086.368-2.062.607-3.295.607-3.957 0-5.521-2.264-5.521-5.558 0-3.46 2.172-5.614 5.687-5.614 1.325 0 2.117.221 3 .516v2.227c-.773-.295-1.896-.608-2.982-.608-1.601 0-2.981.866-2.981 3.313 0 2.724 1.38 3.553 3.11 3.553.828 0 1.749-.166 2.982-.663v2.227zm4.987-5.687c.221-.258.405-.515 3.718-4.546h3.442l-4.288 5.024 4.693 5.577h-3.442l-4.086-5.024v5.042h-2.632V11.32h2.632v8.963h-.037v-.018z" fill="#B6BDD3"/><path fill-rule="evenodd" clip-rule="evenodd" d="M102.81 25.962l.037-.011v.018h-.037v-.007zm-3.884.596c1.368 0 2.52-.18 3.884-.596v-2.201c-1.123.405-2.098.662-3.184.662-1.97 0-3.295-.533-3.35-2.852h6.81c.007-.09.015-.178.024-.267.033-.352.068-.729.068-1.316 0-2.246-1.178-4.583-4.546-4.583-3.405 0-5.172 2.632-5.172 5.521 0 3.939 2.098 5.632 5.466 5.632zm-.331-9.165c1.417 0 1.841 1.122 1.841 2.41h-4.123c.165-1.472.957-2.41 2.282-2.41z" fill="#B6BDD3"/></svg>